<?xml version="1.0" encoding="utf-8"?>
<!-- Generator: Adobe Illustrator 19.1.0, SVG Export Plug-In . SVG Version: 6.00 Build 0)  -->
<svg version="1.1" id="Layer_1" xmlns="http://www.w3.org/2000/svg" xmlns:xlink="http://www.w3.org/1999/xlink" x="0px" y="0px"
	 viewBox="-29.4 151.2 100 100" style="enable-background:new -29.4 151.2 100 100;" xml:space="preserve">
<style type="text/css">
	.st0{fill:none;stroke:#000000;stroke-width:0.5;}
</style>
<path class="st0" d="M21.2,181.3c1.5,0,4-0.6,7.4-1.8c3.4-1.2,6.4-1.8,8.9-1.8c4.1,0,7.8,1.1,11,3.3c1.8,1.3,3.6,3,5.4,5.2
	c-2.7,2.3-4.7,4.3-5.9,6.1c-2.2,3.2-3.4,6.8-3.4,10.7c0,4.3,1.2,8.1,3.6,11.5c2.4,3.4,5.1,5.6,8.2,6.5c-1.3,4.1-3.4,8.5-6.3,13
	c-4.5,6.7-8.9,10.1-13.3,10.1c-1.8,0-4.2-0.6-7.2-1.7c-3.1-1.1-5.7-1.7-7.8-1.7s-4.6,0.6-7.4,1.8c-2.8,1.2-5.1,1.8-6.8,1.8
	c-5.3,0-10.4-4.5-15.5-13.4c-5.1-8.9-7.6-17.5-7.6-26c0-7.9,2-14.3,5.8-19.3c3.9-5,8.8-7.5,14.7-7.5c2.5,0,5.6,0.5,9.2,1.6
	C17.6,180.8,20,181.3,21.2,181.3z"/>
<path class="st0" d="M37,160.5c0,2.1-0.5,4.5-1.5,7.1c-1,2.6-2.6,4.9-4.8,7.1c-1.9,1.9-3.7,3.1-5.6,3.7c-1.2,0.4-3,0.7-5.4,0.9
	c0.1-5.1,1.4-9.5,4-13.3s6.9-6.3,12.9-7.7c0.1,0.4,0.2,0.8,0.3,1.2C37,159.8,37,160.1,37,160.5z"/>
</svg>
