<?xml version="1.0" encoding="utf-8"?>
<!-- Generator: Adobe Illustrator 19.1.0, SVG Export Plug-In . SVG Version: 6.00 Build 0)  -->
<svg version="1.1" id="Layer_1" xmlns="http://www.w3.org/2000/svg" xmlns:xlink="http://www.w3.org/1999/xlink" x="0px" y="0px"
	 viewBox="-197.2 150.8 100 100" style="enable-background:new -197.2 150.8 100 100;" xml:space="preserve">
<style type="text/css">
	.st0{fill:none;stroke:#000000;stroke-width:0.5;stroke-miterlimit:10;}
</style>
<path class="st0" d="M-122.3,245.5h-46.4c-1.3,0-2.3-1-2.3-2.3v-85.4c0-1.3,1-2.3,2.3-2.3h46.4c1.3,0,2.3,1,2.3,2.3v85.4
	C-120,244.5-121,245.5-122.3,245.5z"/>
<path class="st0" d="M-124.7,234.6h-41.7c-0.9,0-1.6-0.7-1.6-1.6v-69.9c0-0.9,0.7-1.6,1.6-1.6h41.7c0.9,0,1.6,0.7,1.6,1.6V233
	C-123,233.8-123.8,234.6-124.7,234.6z"/>
<path class="st0" d="M-147.9,174.3h-5.1c-0.7,0-1.3-0.6-1.3-1.3v-5.1c0-0.7,0.6-1.3,1.3-1.3h5.1c0.7,0,1.3,0.6,1.3,1.3v5.1
	C-146.6,173.8-147.2,174.3-147.9,174.3z M-137.7,174.3h-5.1c-0.7,0-1.3-0.6-1.3-1.3v-5.1c0-0.7,0.6-1.3,1.3-1.3h5.1
	c0.7,0,1.3,0.6,1.3,1.3v5.1C-136.5,173.8-137,174.3-137.7,174.3z M-127.6,174.3h-5.1c-0.7,0-1.3-0.6-1.3-1.3v-5.1
	c0-0.7,0.6-1.3,1.3-1.3h5.1c0.7,0,1.3,0.6,1.3,1.3v5.1C-126.3,173.8-126.9,174.3-127.6,174.3z M-158.1,174.3h-5.1
	c-0.7,0-1.3-0.6-1.3-1.3v-5.1c0-0.7,0.6-1.3,1.3-1.3h5.1c0.7,0,1.3,0.6,1.3,1.3v5.1C-156.8,173.8-157.4,174.3-158.1,174.3z"/>
<path class="st0" d="M-147.9,187.1h-5.1c-0.7,0-1.3-0.6-1.3-1.3v-5.1c0-0.7,0.6-1.3,1.3-1.3h5.1c0.7,0,1.3,0.6,1.3,1.3v5.1
	C-146.6,186.5-147.2,187.1-147.9,187.1z M-137.7,187.1h-5.1c-0.7,0-1.3-0.6-1.3-1.3v-5.1c0-0.7,0.6-1.3,1.3-1.3h5.1
	c0.7,0,1.3,0.6,1.3,1.3v5.1C-136.5,186.5-137,187.1-137.7,187.1z M-127.6,187.1h-5.1c-0.7,0-1.3-0.6-1.3-1.3v-5.1
	c0-0.7,0.6-1.3,1.3-1.3h5.1c0.7,0,1.3,0.6,1.3,1.3v5.1C-126.3,186.5-126.9,187.1-127.6,187.1z M-158.1,187.1h-5.1
	c-0.7,0-1.3-0.6-1.3-1.3v-5.1c0-0.7,0.6-1.3,1.3-1.3h5.1c0.7,0,1.3,0.6,1.3,1.3v5.1C-156.8,186.5-157.4,187.1-158.1,187.1z"/>
<path class="st0" d="M-147.9,199.9h-5.1c-0.7,0-1.3-0.6-1.3-1.3v-5.1c0-0.7,0.6-1.3,1.3-1.3h5.1c0.7,0,1.3,0.6,1.3,1.3v5.1
	C-146.6,199.3-147.2,199.9-147.9,199.9z M-137.7,199.9h-5.1c-0.7,0-1.3-0.6-1.3-1.3v-5.1c0-0.7,0.6-1.3,1.3-1.3h5.1
	c0.7,0,1.3,0.6,1.3,1.3v5.1C-136.5,199.3-137,199.9-137.7,199.9z M-127.6,199.9h-5.1c-0.7,0-1.3-0.6-1.3-1.3v-5.1
	c0-0.7,0.6-1.3,1.3-1.3h5.1c0.7,0,1.3,0.6,1.3,1.3v5.1C-126.3,199.3-126.9,199.9-127.6,199.9z M-158.1,199.9h-5.1
	c-0.7,0-1.3-0.6-1.3-1.3v-5.1c0-0.7,0.6-1.3,1.3-1.3h5.1c0.7,0,1.3,0.6,1.3,1.3v5.1C-156.8,199.3-157.4,199.9-158.1,199.9z"/>
<path class="st0" d="M-147.9,212.7h-5.1c-0.7,0-1.3-0.6-1.3-1.3v-5.1c0-0.7,0.6-1.3,1.3-1.3h5.1c0.7,0,1.3,0.6,1.3,1.3v5.1
	C-146.6,212.1-147.2,212.7-147.9,212.7z M-158.1,212.7h-5.1c-0.7,0-1.3-0.6-1.3-1.3v-5.1c0-0.7,0.6-1.3,1.3-1.3h5.1
	c0.7,0,1.3,0.6,1.3,1.3v5.1C-156.8,212.1-157.4,212.7-158.1,212.7z"/>
<path class="st0" d="M-142.4,239.8c0,1.7-1.4,3.2-3.2,3.2c-1.8,0-3.2-1.4-3.2-3.2c0-1.7,1.4-3.2,3.2-3.2
	C-143.8,236.6-142.4,238-142.4,239.8z"/>
</svg>
