<?xml version="1.0" encoding="utf-8"?>
<!-- Generator: Adobe Illustrator 19.1.0, SVG Export Plug-In . SVG Version: 6.00 Build 0)  -->
<svg version="1.1" id="Layer_1" xmlns="http://www.w3.org/2000/svg" xmlns:xlink="http://www.w3.org/1999/xlink" x="0px" y="0px"
	 viewBox="0 0 100 100" style="enable-background:new 0 0 100 100;" xml:space="preserve">
<style type="text/css">
	.st0{fill:none;stroke:#000000;stroke-width:0.5;}
</style>
<path class="st0" d="M60.4,42.1c3-0.4,5-1.6,6-3.7c0.6-1.2,0.9-2.8,0.9-5c0-4.4-1.6-7.7-4.7-9.7c-3.1-2-7.7-3-13.5-3
	c-6.8,0-11.6,1.8-14.4,5.5c-1.4,1.8-2.4,4.3-2.9,7.6c-0.1,0.8-0.9,1.4-1.7,1.4h-8.8c-1,0-1.8-0.9-1.7-1.9c0.6-8.6,3.6-14.6,9.2-18.1
	c5.9-3.7,12.8-5.6,20.7-5.6c9.1,0,16.5,1.7,22.1,5.2c5.6,3.5,8.4,8.9,8.4,16.2v44.5c0,1.3,0.3,2.4,0.8,3.2c0.6,0.8,1.7,1.2,3.5,1.2
	c0.6,0,1.2,0,1.9-0.1c0.1,0,0.3,0,0.4,0c1-0.1,1.9,0.7,1.9,1.7V88c0,0.8-0.5,1.5-1.3,1.7c-1.4,0.4-2.5,0.6-3.3,0.7
	c-1.1,0.1-2.5,0.2-4.3,0.2c-4.5,0-7.7-1.6-9.7-4.8c-0.6-1-1.2-2.3-1.6-3.9c-0.3-1.3-1.9-1.7-2.9-0.7c-2.4,2.4-5.5,4.6-9.2,6.5
	c-5,2.6-10.4,3.8-16.4,3.8c-7.2,0-13-2.2-17.6-6.5s-6.8-9.8-6.8-16.3c0-7.2,2.2-12.7,6.7-16.7s10.3-6.4,17.6-7.3L60.4,42.1z
	 M33,77.2c2.7,2.2,6,3.2,9.7,3.2c4.6,0,9-1.1,13.3-3.2c7.2-3.5,10.8-9.3,10.8-17.2v-7.6c0-1.2-1.2-2.1-2.4-1.6
	c-1.1,0.5-2.4,0.9-3.8,1.3c-2.5,0.7-4.9,1.2-7.4,1.4l-7.9,1c-4.7,0.6-8.2,1.6-10.6,3c-4,2.3-6,5.9-6,10.8
	C28.9,72.1,30.3,75.1,33,77.2z"/>
</svg>
